<?xml version="1.0" encoding="UTF-8"?>
<svg width="63px" height="34px" viewBox="0 0 63 34" version="1.1" xmlns="http://www.w3.org/2000/svg" xmlns:xlink="http://www.w3.org/1999/xlink">
    <!-- Generator: Sketch 45.2 (43514) - http://www.bohemiancoding.com/sketch -->
    <title>fynd_logo</title>
    <desc>Created with Sketch.</desc>
    <defs>
        <polygon id="path-1" points="6.49689011 13.9499703 6.49689011 0.0890032967 0.00378351648 0.0890032967 0.00378351648 13.9499703 6.49689011 13.9499703"></polygon>
        <polygon id="path-3" points="5.43389121 0.00253846154 1.20879121e-05 0.00253846154 1.20879121e-05 8.56290769 5.43389121 8.56290769"></polygon>
    </defs>
    <g id="Projects" stroke="none" stroke-width="1" fill="none" fill-rule="evenodd">
        <g id="fynd_logo">
            <g id="Page-1" transform="translate(4.000000, 6.000000)">
                <g id="Group-3" transform="translate(48.472527, 1.327132)">
                    <mask id="mask-2" fill="white">
                        <use xlink:href="#path-1"></use>
                    </mask>
                    <g id="Clip-2"></g>
                    <path d="M4.2192011,5.66697033 L4.2192011,11.3319703 C4.2192011,11.6076956 4.1363989,11.8041242 3.96583846,11.9324978 C3.77134396,12.0790033 3.54046484,12.150322 3.26002527,12.150322 C2.95299231,12.150322 2.70954176,12.0792451 2.51516813,11.9324978 C2.34460769,11.8042451 2.26192637,11.6079374 2.26192637,11.3319703 L2.26192637,5.66697033 C2.26192637,5.37988242 2.34484945,5.17789341 2.51540989,5.0493989 C2.70978352,4.90289341 2.95323407,4.83181648 3.26002527,4.83181648 C3.53889341,4.83181648 3.76880549,4.90494835 3.96257473,5.05532198 C4.13519011,5.18973956 4.2192011,5.38979451 4.2192011,5.66697033 L4.2192011,5.66697033 Z M4.2192011,0.0890032967 L4.2192011,3.12113516 C4.15573956,3.09212418 4.08708022,3.06468462 4.01346484,3.0386956 C3.71247582,2.93268462 3.33424505,2.87889341 2.88928901,2.87889341 C1.9729044,2.87889341 1.2550033,3.13479451 0.755289011,3.63958571 C0.256662637,4.14353077 0.00378351648,4.82565165 0.00378351648,5.66697033 L0.00378351648,11.2127835 C0.00378351648,12.1083769 0.258113187,12.8343769 0.759640659,13.3709593 C1.26576154,13.913344 1.96250879,13.9499703 2.83078352,13.9499703 L6.49692637,13.9499703 L6.49692637,0.0890032967 L4.2192011,0.0890032967 Z" id="Fill-1" fill="#6B6584" mask="url(#mask-2)"></path>
                </g>
                <path d="M36.4561516,12.659078 C36.4561516,12.9349242 36.3732286,13.1312319 36.2023055,13.2597264 C36.0082945,13.4064736 35.7776571,13.4166275 35.4972176,13.4166275 C35.1901846,13.4166275 34.9467341,13.4064736 34.7523604,13.2594846 C34.5820418,13.1314736 34.4992396,12.9350451 34.4992396,12.659078 L34.4992396,4.34199011 L32.2413385,4.34199011 L32.2413385,12.7273747 C32.2413385,13.2322868 32.3294593,13.6673308 32.5030418,14.0204187 C33.304833,15.4297484 35.3453934,15.2771989 36.4649758,15.2771989 C36.6183714,18.6244626 32.7987121,18.4402429 32.7987121,18.4402429 L32.7584593,20.7348912 C32.7584593,20.7348912 38.7335143,20.8881659 38.7335143,15.2715176 L38.7335143,4.34199011 L36.4561516,4.34199011 L36.4561516,12.659078 Z" id="Fill-4" fill="#6B6584"></path>
                <path d="M46.1929407,4.99216264 C46.1929407,4.99216264 45.3716879,4.34195385 43.9779516,4.34195385 L40.2153473,4.34195385 L40.2153473,15.2770418 L42.5226879,15.2770418 L42.5226879,6.99416264 C42.5226879,6.72278901 42.6206,6.53264615 42.8310505,6.39569011 C43.0758308,6.23649231 43.3394681,6.15888791 43.6371934,6.15888791 C43.9468857,6.15888791 44.2128198,6.23588791 44.4504681,6.39411868 C44.6558418,6.53107473 44.751578,6.72158022 44.751578,6.99416264 L44.751578,15.2770418 L47.0586769,15.2770418 L47.0586769,6.94327253 C47.0586769,6.11682198 46.7674791,5.49223956 46.1929407,4.99216264" id="Fill-6" fill="#6B6584"></path>
                <polygon id="Fill-8" fill="#6B6584" points="30.9898527 3.45408462 30.9887648 1.41618352 25.6594462 1.41618352 25.6594462 15.2773923 28.0263802 15.2773923 28.0263802 9.61251319 30.9887648 9.61251319 30.9887648 7.57461209 28.0263802 7.57461209 28.0263802 3.45408462"></polygon>
                <polygon id="Fill-10" fill="#D61987" points="0 4.16572418 0 13.1976912 5.42130769 17.7140978 5.42142857 8.68128462"></polygon>
                <polygon id="Fill-12" fill="#DF408F" points="10.8430626 13.1977154 5.42139231 8.68118791 5.42163407 17.714122"></polygon>
                <g id="Group-16" transform="translate(0.000000, 0.118341)">
                    <mask id="mask-4" fill="white">
                        <use xlink:href="#path-3"></use>
                    </mask>
                    <g id="Clip-15"></g>
                    <path d="M4.44413297,0.359567033 C4.79286923,0.0762263736 5.13592418,-0.00705934066 5.43389121,0.00333626374 L5.42144066,8.56290769 L1.20879121e-05,4.04734725 L4.44413297,0.359567033 Z" id="Fill-14" fill="#DF408F" mask="url(#mask-4)"></path>
                </g>
                <path d="M6.41142857,0.479321978 C6.06245055,0.19573956 5.71963736,0.112332967 5.42142857,0.122728571 L5.42142857,8.68012418 L10.8554286,4.16673956 L6.41142857,0.479321978 Z" id="Fill-17" fill="#E05E9A"></path>
                <polygon id="Fill-19" fill="#00919B" points="21.700522 4.16572418 16.2790934 8.68128462 16.2792143 17.7140978 21.7006429 13.1976912"></polygon>
                <polygon id="Fill-21" fill="#009EA4" points="10.8576407 13.1977154 16.2790692 8.68118791 16.2789484 17.714122"></polygon>
                <path d="M16.2790813,17.7126231 L10.8576527,13.197667 L10.8430264,13.197667 L5.42135604,17.7126231 L9.86596044,21.4005242 C10.2107077,21.6809637 10.5492901,21.7637659 10.8452022,21.7550626 L10.8502791,21.7550626 L10.8552352,21.7550626 C11.1511473,21.7637659 11.4897297,21.6809637 11.8347187,21.4005242 L16.2790813,17.7126231 Z" id="Fill-23" fill="#774C9E"></path>
                <path d="M17.2690692,0.480736264 C16.9200912,0.197153846 16.577278,0.113747253 16.2790692,0.124505495 L16.2790692,8.68117582 L21.7004978,4.16573626 L17.2690692,0.480736264 Z" id="Fill-25" fill="#009EA4"></path>
                <path d="M15.2892626,0.480736264 C15.6379989,0.197153846 15.980933,0.113747253 16.2791418,0.124505495 L16.2791418,8.68117582 L10.8554165,4.16682418 L15.2892626,0.480736264 Z" id="Fill-27" fill="#00ABAA"></path>
            </g>
        </g>
    </g>
</svg>
