<?xml version="1.0" encoding="UTF-8"?>
<svg width="140px" height="34px" viewBox="0 0 140 34" version="1.1" xmlns="http://www.w3.org/2000/svg" xmlns:xlink="http://www.w3.org/1999/xlink">
    <!-- Generator: Sketch 45.2 (43514) - http://www.bohemiancoding.com/sketch -->
    <title>Artboard</title>
    <desc>Created with Sketch.</desc>
    <defs>
        <polygon id="path-1" points="36.093548 31.552 0 31.552 0 0.1800912 36.093548 0.1800912 36.093548 31.552"></polygon>
        <polygon id="path-3" points="20.36192 15.75356 20.36192 0.108936 0.1841984 0.108936 0.1841984 15.75356 20.36192 15.75356"></polygon>
    </defs>
    <g id="Projects" stroke="none" stroke-width="1" fill="none" fill-rule="evenodd">
        <g id="Artboard">
            <g id="Page-1" transform="translate(2.000000, 1.000000)">
                <polygon id="Fill-1" fill="#8E72B2" points="27.0577712 0.6800272 35.6856112 15.9604432 26.8662832 31.2359632 18.3238512 15.9604432 9.2273552 31.2359632 0.4080272 15.9604432 9.5899312 0.6800272"></polygon>
                <g id="Group-18" transform="translate(0.000000, 0.091936)">
                    <g id="Group-4">
                        <mask id="mask-2" fill="white">
                            <use xlink:href="#path-1"></use>
                        </mask>
                        <g id="Clip-3"></g>
                        <path d="M27.0577712,0.5880912 L26.7025392,0.7885552 L35.2155952,15.8663312 L26.8717232,30.3182352 L18.6798992,15.6691312 C18.6086352,15.5421072 18.4750832,15.4626832 18.3292912,15.4605072 C18.1834992,15.4586032 18.0477712,15.5342192 17.9732432,15.6596112 L9.2327952,30.3372752 L0.8815792,15.8723152 L9.8205872,0.9960912 L27.0577712,0.9960912 L27.0577712,0.5880912 L26.7025392,0.7885552 L27.0577712,0.5880912 L27.0577712,0.1800912 L9.5899312,0.1800912 C9.4465872,0.1800912 9.3138512,0.2551632 9.2401392,0.3781072 L0.0582352,15.6582512 C-0.0181968,15.7855472 -0.0195568,15.9438512 0.0546992,16.0725072 L8.8740272,31.3480272 C8.9463792,31.4731472 9.0802032,31.5509392 9.2246352,31.5520272 C9.3690672,31.5531152 9.5039792,31.4769552 9.5779632,31.3526512 L18.3126992,16.6845072 L26.5102352,31.3431312 C26.5817712,31.4715152 26.7164112,31.5509392 26.8635632,31.5520272 C27.0104432,31.5531152 27.1461712,31.4753232 27.2196112,31.3480272 L36.0389392,16.0725072 C36.1110192,15.9473872 36.1118352,15.7934352 36.0408432,15.6677712 L27.4130032,0.3876272 C27.3406512,0.2592432 27.2049232,0.1800912 27.0577712,0.1800912 L27.0577712,0.5880912 Z" id="Fill-2" fill="#6B4FA0" mask="url(#mask-2)"></path>
                    </g>
                    <path d="M26.5500288,15.8660592 C26.5500288,20.5621392 22.7428448,24.3695952 18.0467648,24.3695952 C13.3506848,24.3695952 9.5435008,20.5621392 9.5435008,15.8660592 C9.5435008,11.1702512 13.3506848,7.3630672 18.0467648,7.3630672 C22.7428448,7.3630672 26.5500288,11.1702512 26.5500288,15.8660592" id="Fill-5" fill="#DF5E9A"></path>
                    <path d="M26.5500288,15.8660592 L26.1420288,15.8660592 C26.1417568,18.1027152 25.2365408,20.1239472 23.7710048,21.5902992 C22.3046528,23.0561072 20.2834208,23.9613232 18.0467648,23.9615952 C15.8101088,23.9613232 13.7888768,23.0561072 12.3225248,21.5902992 C10.8569888,20.1239472 9.9517728,18.1027152 9.9515008,15.8660592 C9.9517728,13.6294032 10.8569888,11.6084432 12.3225248,10.1420912 C13.7888768,8.6765552 15.8101088,7.7713392 18.0467648,7.7710672 C20.2834208,7.7713392 22.3046528,8.6765552 23.7710048,10.1420912 C25.2365408,11.6084432 26.1417568,13.6294032 26.1420288,15.8660592 L26.5500288,15.8660592 L26.9580288,15.8660592 C26.9577568,10.9447632 22.9686048,6.9553392 18.0467648,6.9550672 C13.1251968,6.9553392 9.1357728,10.9447632 9.1355008,15.8660592 C9.1357728,20.7876272 13.1251968,24.7773232 18.0467648,24.7775952 C22.9686048,24.7773232 26.9577568,20.7876272 26.9580288,15.8660592 L26.5500288,15.8660592 Z" id="Fill-7" fill="#6B4FA0"></path>
                    <path d="M21.2798928,15.8660592 C21.2798928,17.6517392 19.8323088,19.0995952 18.0466288,19.0995952 C16.2612208,19.0995952 14.8136368,17.6517392 14.8136368,15.8660592 C14.8136368,14.0806512 16.2612208,12.6330672 18.0466288,12.6330672 C19.8323088,12.6330672 21.2798928,14.0806512 21.2798928,15.8660592" id="Fill-9" fill="#FEFEFE"></path>
                    <path d="M21.2798928,15.8660592 L20.8816848,15.8660592 C20.8814128,16.6502352 20.5650768,17.3563472 20.0512688,17.8706992 C19.5369168,18.3845072 18.8308048,18.7011152 18.0466288,18.7013872 C17.2627248,18.7011152 16.5563408,18.3845072 16.0422608,17.8706992 C15.5284528,17.3563472 15.2121168,16.6502352 15.2118448,15.8660592 C15.2121168,15.0818832 15.5284528,14.3757712 16.0422608,13.8616912 C16.5563408,13.3478832 17.2624528,13.0315472 18.0466288,13.0312752 C18.8308048,13.0315472 19.5369168,13.3478832 20.0512688,13.8616912 C20.5650768,14.3757712 20.8814128,15.0818832 20.8816848,15.8660592 L21.2798928,15.8660592 L21.6781008,15.8660592 C21.6778288,13.8603312 20.0523568,12.2351312 18.0466288,12.2348592 C16.0411728,12.2351312 14.4157008,13.8603312 14.4154288,15.8660592 C14.4157008,17.8717872 16.0409008,19.4975312 18.0466288,19.4978032 C20.0523568,19.4975312 21.6778288,17.8717872 21.6781008,15.8660592 L21.2798928,15.8660592 Z" id="Fill-11" fill="#6B4FA0"></path>
                    <path d="M43.9892272,18.5509712 C43.9892272,19.6694352 44.5038512,20.4691152 45.1221072,20.8134672 L44.0931312,21.8843312 L44.0931312,23.3729872 C44.0931312,25.6934192 45.6720912,26.7732592 47.7474512,26.7732592 L51.0598672,26.7732592 C53.9523152,26.7732592 54.7362192,25.0618352 54.7362192,23.3729872 L54.7362192,22.1030192 C54.7362192,19.7358032 53.3887312,18.6306672 51.2684912,18.6306672 L47.6702032,18.6306672 C47.1811472,18.6306672 46.7772272,18.5509712 46.7772272,18.0377072 C46.7772272,17.5244432 47.3168752,17.5211792 47.6702032,17.5211792 L50.3863952,17.5211792 C53.6920112,17.5211792 54.3940432,15.2687472 54.3940432,13.5796272 C54.3940432,12.1742032 54.1590352,11.7708272 53.9523152,11.2831312 L55.2551952,10.8854672 L55.2551952,9.0415792 L48.1228112,9.0415792 C45.4808752,9.0415792 44.0599472,10.4108272 44.0599472,13.2151472 C44.0599472,14.3855632 44.3811792,15.8451152 45.3527632,16.4633712 C44.3988592,16.7614832 43.9892272,17.6280752 43.9892272,18.5509712 L43.9892272,18.5509712 Z M47.1966512,22.9962672 L47.1966512,21.0476592 C47.1966512,21.0476592 47.6995792,21.1270832 48.1296112,21.1270832 L50.5077072,21.1270832 C51.3846352,21.1363312 51.6571792,21.5397072 51.6571792,22.2012112 L51.6571792,23.0569232 C51.6571792,23.7426352 51.5247152,24.2890832 50.4160432,24.2890832 L48.5854832,24.2890832 C47.8127312,24.2890832 47.1966512,24.1587952 47.1966512,22.9962672 L47.1966512,22.9962672 Z M47.1512272,13.2151472 C47.1512272,12.3406672 47.3565872,11.5260272 48.6086032,11.5260272 L49.7945232,11.5260272 C50.8830672,11.5260272 51.2728432,11.9965872 51.3027632,13.2151472 C51.3226192,14.2773072 50.9880592,15.0367312 49.8165552,15.0367312 L48.5756912,15.0367312 C47.4825232,15.0367312 47.1512272,14.2971632 47.1512272,13.2151472 L47.1512272,13.2151472 Z M56.4122832,15.1142512 C56.4122832,19.3095792 57.7118992,20.9217232 61.7614352,20.9217232 C65.8599312,20.9217232 67.1108592,19.4643472 67.1108592,15.1142512 C67.1108592,10.4548912 65.7992752,8.9754832 61.7614352,8.9754832 C57.7978512,8.9754832 56.4122832,10.3224272 56.4122832,15.1142512 L56.4122832,15.1142512 Z M59.5038352,15.1142512 C59.5038352,11.8317552 59.9322352,11.4596592 61.7614352,11.4596592 C63.6042352,11.4596592 64.0195792,11.8293072 64.0195792,15.1142512 C64.0195792,18.2011792 63.5027792,18.4372752 61.7614352,18.4372752 C60.1188272,18.4372752 59.5038352,18.1481392 59.5038352,15.1142512 L59.5038352,15.1142512 Z M68.2744752,11.4487792 L70.1126512,11.4487792 L70.1126512,20.8112912 L73.2042032,20.8112912 L73.2042032,11.4487792 L75.8649072,11.4487792 L75.8649072,9.0856432 L73.2042032,9.0856432 L73.2042032,7.6285392 C73.2042032,6.3985552 73.1753712,5.7756752 74.4186832,5.7977072 L76.5272272,5.8197392 L76.5272272,3.9848272 C75.5667952,3.5931472 74.6515152,3.4552432 73.5694992,3.4552432 C70.9196752,3.4552432 70.1126512,4.8935792 70.1126512,6.8998512 L70.1126512,9.0856432 L68.2744752,9.4612752 L68.2744752,11.4487792 Z M77.1960752,9.0856432 L79.4961072,17.8236432 C80.0667632,19.9898512 81.3541392,20.8112912 82.9836912,20.8112912 L81.3331952,26.7732592 L83.5391152,26.7732592 L85.1466352,24.5208272 L89.2086832,9.0856432 L85.9911952,9.0856432 L83.6427472,18.1514032 C83.4583312,18.1391632 82.7163152,18.2332752 82.4649872,17.2902512 L80.4421232,9.0856432 L77.1960752,9.0856432 Z M90.6146512,20.8112912 L93.7062032,20.8112912 L93.7062032,12.3871792 C94.6171312,11.6916752 95.2960432,11.3712592 96.5404432,11.3712592 C97.3142832,11.3712592 97.8357072,11.7906832 97.8357072,12.9567472 L97.8357072,20.8112912 L100.926987,20.8112912 L100.926987,13.0051632 C100.926987,10.7706832 100.156411,8.8873552 97.4271632,8.8873552 C95.6384912,8.8873552 94.7131472,9.6092432 93.7062032,10.3335792 L93.0990992,9.0856432 L90.6146512,9.0856432 L90.6146512,20.8112912 Z M102.588363,15.0038192 C102.588363,18.6573232 103.530299,20.9437552 106.416219,20.9437552 C107.808315,20.9437552 109.222987,20.2194192 109.954939,19.6297232 L110.505739,20.8112912 L113.048395,20.8112912 L113.048395,3.4770032 L109.966907,3.4770032 L109.966907,9.6712592 C108.893867,9.1822032 107.410107,8.9093872 106.416219,8.9093872 C103.166907,8.9093872 102.588363,11.2597392 102.588363,15.0038192 L102.588363,15.0038192 Z M105.679915,14.8822352 C105.679915,11.8902352 106.241867,11.3326352 107.217803,11.3326352 C108.286491,11.3326352 109.147643,11.4607472 109.954939,11.7730032 L109.954939,17.5772112 C109.296971,18.0023472 108.379515,18.3015472 107.217803,18.3015472 C106.219835,18.3015472 105.679915,17.4980592 105.679915,14.8822352 L105.679915,14.8822352 Z" id="Fill-13" fill="#6B4FA0"></path>
                    <g id="Group-17" transform="translate(115.600000, 5.168000)">
                        <mask id="mask-4" fill="white">
                            <use xlink:href="#path-3"></use>
                        </mask>
                        <g id="Clip-16"></g>
                        <path d="M0.1841984,15.135304 C0.1841984,15.444568 0.4050624,15.643128 0.7143264,15.643128 L2.0833024,15.643128 C2.3925664,15.643128 2.6354624,15.532696 2.6354624,15.135304 L2.6354624,13.677928 C2.6354624,13.3246 2.4806944,13.12604 2.0833024,13.12604 L0.7143264,13.12604 C0.3609984,13.12604 0.1841984,13.346904 0.1841984,13.677928 L0.1841984,15.135304 Z M5.4014304,2.061896 C5.4014304,2.370888 5.6222944,2.569992 5.9315584,2.569992 L7.3669024,2.569992 C7.6758944,2.569992 7.8714624,2.39292 7.8714624,2.061896 L7.8714624,0.660824 C7.8714624,0.35156 7.6981984,0.108936 7.3669024,0.108936 L5.9315584,0.108936 C5.5782304,0.108936 5.4014304,0.329256 5.4014304,0.660824 L5.4014304,2.061896 Z M5.5926464,15.643128 L7.6242144,15.643128 L7.6242144,3.917752 L5.5926464,3.917752 L5.5926464,15.643128 Z M9.9283264,9.94636 C9.9283264,14.141688 11.1661984,15.75356 15.1450144,15.75356 C19.1374304,15.75356 20.3619744,14.296456 20.3619744,9.94636 C20.3619744,5.287 19.1211104,3.807592 15.1450144,3.807592 C11.2698304,3.807592 9.9283264,5.154536 9.9283264,9.94636 L9.9283264,9.94636 Z M11.9598944,9.94636 C11.9598944,5.983592 12.8477024,5.673512 15.1450144,5.673512 C17.5266464,5.673512 18.3304064,5.999096 18.3304064,9.94636 C18.3304064,13.598504 17.3544704,13.887912 15.1450144,13.887912 C13.0429984,13.887912 11.9598944,13.616184 11.9598944,9.94636 L11.9598944,9.94636 Z" id="Fill-15" fill="#6B4FA0" mask="url(#mask-4)"></path>
                    </g>
                </g>
            </g>
        </g>
    </g>
</svg>
